ModelForces
version=1
nRows=7
nColumns=67
inDegrees=no

This file contains the forces exerted on a model during a simulation.

A force is a generalized force, meaning that it can be either a force (N) or a torque (Nm).

Units are S.I. units (second, meters, Newtons, ...)
Angles are in degrees.

endheader
time	hamstrings_r	bifemsh_r	glut_max_r	iliopsoas_r	rect_fem_r	vasti_r	gastroc_r	soleus_r	tib_ant_r	hamstrings_l	bifemsh_l	glut_max_l	iliopsoas_l	rect_fem_l	vasti_l	gastroc_l	soleus_l	tib_ant_l	foot_r.ground.force.X	foot_r.ground.force.Y	foot_r.ground.force.Z	foot_r.ground.torque.X	foot_r.ground.torque.Y	foot_r.ground.torque.Z	foot_r.calcn_r.force.X	foot_r.calcn_r.force.Y	foot_r.calcn_r.force.Z	foot_r.calcn_r.torque.X	foot_r.calcn_r.torque.Y	foot_r.calcn_r.torque.Z	foot_r.toes_r.force.X	foot_r.toes_r.force.Y	foot_r.toes_r.force.Z	foot_r.toes_r.torque.X	foot_r.toes_r.torque.Y	foot_r.toes_r.torque.Z	foot_l.ground.force.X	foot_l.ground.force.Y	foot_l.ground.force.Z	foot_l.ground.torque.X	foot_l.ground.torque.Y	foot_l.ground.torque.Z	foot_l.calcn_l.force.X	foot_l.calcn_l.force.Y	foot_l.calcn_l.force.Z	foot_l.calcn_l.torque.X	foot_l.calcn_l.torque.Y	foot_l.calcn_l.torque.Z	foot_l.toes_l.force.X	foot_l.toes_l.force.Y	foot_l.toes_l.force.Z	foot_l.toes_l.torque.X	foot_l.toes_l.torque.Y	foot_l.toes_l.torque.Z	HipLimit_r	PotentialEnergy	HipLimit_l	PotentialEnergy	KneeLimit_r	PotentialEnergy	KneeLimit_l	PotentialEnergy	AnkleLimit_r	PotentialEnergy	AnkleLimit_l	PotentialEnergy
      0.00000000	    194.30030504	     42.72881123	    171.78735096	    158.01207984	     99.03297054	    436.79388414	    273.01783257	    370.00599517	    104.05059952	    194.30030504	     42.72881123	    171.78735096	    158.01207984	     99.03297054	    436.79388414	    273.01783257	    370.00599517	    104.05059952	     -0.00000000	   -365.20910535	      0.00000000	     33.60973368	     -0.00000000	     13.85215801	      0.00000000	    159.35977861	      0.00000000	      0.00000000	      0.00000000	      5.09340539	      0.00000000	    205.84932674	      0.00000000	      0.00000000	      0.00000000	      6.57928919	     -0.00000000	   -365.20910535	      0.00000000	    -33.60973368	      0.00000000	     13.85215801	      0.00000000	    159.35977861	      0.00000000	      0.00000000	      0.00000000	      5.09340539	      0.00000000	    205.84932674	      0.00000000	      0.00000000	      0.00000000	      6.57928919	      0.00000000	      0.00000000	      0.00000000	      0.00000000	      0.00000000	      0.00000000	      0.00000000	      0.00000000	      0.00000000	      0.00000000	      0.00000000	      0.00000000
      0.00000593	    193.03078272	     42.76941752	    173.59476281	    158.09421329	     99.02951145	    423.50531763	    273.03123286	    368.85909728	    104.28686214	    194.34330798	     42.74125183	    171.76457699	    158.17733721	     99.21004990	    440.21446134	    273.15748422	    370.07134504	    104.28686231	      0.97917576	   -365.18970577	      0.00000000	     33.60793605	      0.09011269	     13.85521204	     -0.42691474	    159.36271880	      0.00000000	      0.00000000	      0.00000000	      5.09349045	     -0.55226102	    205.82698697	      0.00000000	      0.00000000	      0.00000000	      6.58434410	      0.98645018	   -365.19004670	      0.00000000	    -33.60796762	     -0.09078214	     13.85520605	     -0.43009468	    159.36268854	      0.00000000	      0.00000000	      0.00000000	      5.09348941	     -0.55635550	    205.82735816	      0.00000000	      0.00000000	      0.00000000	      6.58439874	      0.00000000	      0.00000000	      0.00000000	      0.00000000	      0.00000000	      0.00000000	      0.00000000	      0.00000000	      0.00000000	      0.00000000	      0.00000000	      0.00000000
      0.00001187	    191.53043015	     42.81809441	    175.76932164	    158.19274019	     99.02534973	    408.64199216	    273.04732003	    367.49355271	    104.57074384	    194.39491364	     42.75617293	    171.73715902	    158.37557745	     99.42273696	    444.33631756	    273.32511388	    370.14975472	    104.57074522	      1.93238245	   -365.16957139	      0.00000000	     33.60607037	      0.17783542	     13.85825948	     -0.84254779	    159.36572143	      0.00000000	      0.00000000	      0.00000000	      5.09357770	     -1.08983465	    205.80384996	      0.00000000	      0.00000000	      0.00000000	      6.58922006	      1.96797952	   -365.17126690	      0.00000000	    -33.60622737	     -0.18111135	     13.85822859	     -0.85810787	    159.36557069	      0.00000000	      0.00000000	      0.00000000	      5.09357256	     -1.10987165	    205.80569621	      0.00000000	      0.00000000	      0.00000000	      6.58948838	      0.00000000	      0.00000000	      0.00000000	      0.00000000	      0.00000000	      0.00000000	      0.00000000	      0.00000000	      0.00000000	      0.00000000	      0.00000000	      0.00000000
      0.00004153	    184.38213749	     43.06067930	    186.73427323	    158.68485457	     99.00437382	    348.19834188	    273.12788793	    360.83473140	    105.99616555	    194.65298367	     42.83066512	    171.59854947	    159.36575067	    100.48933234	    465.22842165	    274.16404789	    370.54162220	    105.99623382	      6.36006003	   -365.05838846	      0.00000000	     33.59576876	      0.58530979	     13.87346377	     -2.77384988	    159.38163754	      0.00000000	      0.00000000	      0.00000000	      5.09404536	     -3.58621015	    205.67675093	      0.00000000	      0.00000000	      0.00000000	      6.61123395	      6.80500011	   -365.08153440	      0.00000000	    -33.59791201	     -0.62625676	     13.87296422	     -2.96828484	    159.37955802	      0.00000000	      0.00000000	      0.00000000	      5.09397493	     -3.83671527	    205.70197637	      0.00000000	      0.00000000	      0.00000000	      6.61465709	      0.00000000	      0.00000000	      0.00000000	      0.00000000	      0.00000000	      0.00000000	      0.00000000	      0.00000000	      0.00000000	      0.00000000	      0.00000000	      0.00000000
      0.00008967	    173.91030894	     43.45140487	    204.82078025	    159.48132472	     98.96983107	    282.50173391	    273.25918354	    350.59862006	    108.32990759	    195.07183392	     42.95113215	    171.36826374	    160.96860943	    102.23097575	    500.12380977	    275.52789131	    371.17663774	    108.33059050	     12.60450220	   -364.84339622	      0.00000000	     33.57585082	      1.15997604	     13.89834785	     -5.50038315	    159.41048948	      0.00000000	      0.00000000	      0.00000000	      5.09490732	     -7.10411906	    205.43290673	      0.00000000	      0.00000000	      0.00000000	      6.64018375	     14.42333514	   -364.95061487	      0.00000000	    -33.58577910	     -1.32736022	     13.89557141	     -6.29470767	    159.40071814	      0.00000000	      0.00000000	      0.00000000	      5.09457930	     -8.12862747	    205.54989673	      0.00000000	      0.00000000	      0.00000000	      6.65462613	      0.00000000	      0.00000000	      0.00000000	      0.00000000	      0.00000000	      0.00000000	      0.00000000	      0.00000000	      0.00000000	      0.00000000	      0.00000000	      0.00000000
      0.00014932	    162.56466998	     43.93072190	    227.66105726	    160.46484139	     98.92631952	    231.55054662	    273.42316656	    338.80607709	    111.25774870	    195.59116782	     43.09978857	    171.07343079	    162.94886631	    104.40843733	    545.07164073	    277.22262789	    371.96195191	    111.26081003	     19.19600713	   -364.52259105	      0.00000000	     33.54613246	      1.76657573	     13.93013958	     -8.38418971	    159.45112708	      0.00000000	      0.00000000	      0.00000000	      5.09613789	    -10.81181743	    205.07146397	      0.00000000	      0.00000000	      0.00000000	      6.66735010	     23.52342303	   -364.81329389	      0.00000000	    -33.57305149	     -2.16482268	     13.92145077	    -10.27217808	    159.42425000	      0.00000000	      0.00000000	      0.00000000	      5.09524330	    -13.25124495	    205.38904389	      0.00000000	      0.00000000	      0.00000000	      6.70298800	      0.00000000	      0.00000000	      0.00000000	      0.00000000	      0.00000000	      0.00000000	      0.00000000	      0.00000000	      0.00000000	      0.00000000	      0.00000000	      0.00000000
      0.00022573	    150.16328961	     44.53685621	    257.43480732	    161.71882450	     98.86970530	    191.64588601	    273.63579320	    324.98943329	    115.06496995	    196.25685723	     43.28927768	    170.67983681	    165.47592205	    107.22837661	    605.36147713	    279.40064487	    372.96452112	    115.07519083	     26.34989380	   -364.03078866	      0.00000000	     33.50057647	      2.42491830	     13.97306819	    -11.52488801	    159.51063430	      0.00000000	      0.00000000	      0.00000000	      5.09795673	    -14.82500578	    204.52015436	      0.00000000	      0.00000000	      0.00000000	      6.69162372	     34.72782078	   -364.67729557	      0.00000000	    -33.56044389	     -3.19593534	     13.95132536	    -15.17415123	    159.44995331	      0.00000000	      0.00000000	      0.00000000	      5.09595379	    -19.55366955	    205.22734226	      0.00000000	      0.00000000	      0.00000000	      6.76363994	      0.00000000	      0.00000000	      0.00000000	      0.00000000	      0.00000000	      0.00000000	      0.00000000	      0.00000000	      0.00000000	      0.00000000	      0.00000000	      0.00000000
